# xmcd
#
# Track frame offsets:
#	150
#	1432
#	61779
#	78856
#	116144
#	117813
#	126937
#	133151
#	166199
#	189692
#	197412
#	220360
#	222562
#	223681
#	226704
#	227743
#	230200
#	235120
#	238759
#	243153
#	246229
#	250012
#	253206
#	283248
#	285095
#	305909
#
# Disc length: 4091 seconds
# Revision: 1
# Processed by: cddbd v1.5.2PL0 Copyright (c) Steve Scherf et al.
# Submitted via: dBpowerAMP V12.0
#
DISCID=810ff91a
DTITLE=Hale Dwoskin - The Inner Circle Retreat 03 CD 05
DYEAR=2007
DGENRE=Speech
TTITLE0=Intro Music
TTITLE1=About Goals - Physical Pain
TTITLE2=Extreme Physical Pain
TTITLE3=Physical Pain - Intuitive Knowing - Punishing Yourself
TTITLE4=Question on the Release
TTITLE5=Pain Is Just a Memory
TTITLE6=Goals Are Intentions
TTITLE7=About Your Purpose - The Bla Exercise Negative Version
TTITLE8=Release on the Bla Exercise Negative Version
TTITLE9=The Bla Exercise Positive Version
TTITLE10=Release on the Bla Exercise Positive Version
TTITLE11=Sharing
TTITLE12=Sharing
TTITLE13=Sharing
TTITLE14=Sharing
TTITLE15=Sharing
TTITLE16=Sharing
TTITLE17=Sharing
TTITLE18=Sharing
TTITLE19=Sharing
TTITLE20=Sharing
TTITLE21=Sharing
TTITLE22=About Anger
TTITLE23=Sharing on Anger Experiences
TTITLE24=About the Emotions - Sharing
TTITLE25=Concluding Music
EXTD=
EXTT0=
EXTT1=
EXTT2=
EXTT3=
EXTT4=
EXTT5=
EXTT6=
EXTT7=
EXTT8=
EXTT9=
EXTT10=
EXTT11=
EXTT12=
EXTT13=
EXTT14=
EXTT15=
EXTT16=
EXTT17=
EXTT18=
EXTT19=
EXTT20=
EXTT21=
EXTT22=
EXTT23=
EXTT24=
EXTT25=
PLAYORDER=
